<svg class="tt-progress-svg" width="100%" height="100%" viewBox="-1 -1 102 102">
  <path class="tt-progress-circle" d="M50,1 a49,49 0 0,1 0,98 a49,49 0 0,1 0,-98" shape-rendering="geometricPrecision" style="stroke-dasharray: 307.919, 307.919; stroke-dashoffset: 275.763;"></path>
  <path  class="tt-progress-arrow" shape-rendering="geometricPrecision" d="m 49.896033,35.953207 c -0.037,-5.67e-4 -0.0117,0.0051 0.0781,0.0098 h 0.0254 0.0273 c 0.5466,-0.02831 1.09262,0.154682 1.51563,0.568359 l 12.13477,11.867188 c 0.81007,0.792186 0.82857,2.058166 0.0391,2.869141 -0.78971,0.811152 -2.05676,0.829722 -2.86524,0.03906 l -8.82226,-8.628906 v 19.341797 c 0,1.13191 -0.89739,2.027343 -2.0293,2.027343 -1.13191,0 -2.02734,-0.895438 -2.02734,-2.027343 V 42.677817 l -8.82227,8.628906 c -0.80819,0.790394 -2.07777,0.771803 -2.86719,-0.03906 -0.78922,-0.810676 -0.7693,-2.076676 0.041,-2.869141 l 12.13281,-11.867188 c 0.40433,-0.395406 0.92118,-0.585341 1.43946,-0.578125 z"></path>
</svg>
