<?xml version="1.0" encoding="UTF-8" standalone="no"?>
<svg
   xmlns:dc="http://purl.org/dc/elements/1.1/"
   xmlns:cc="http://creativecommons.org/ns#"
   xmlns:rdf="http://www.w3.org/1999/02/22-rdf-syntax-ns#"
   xmlns:svg="http://www.w3.org/2000/svg"
   xmlns="http://www.w3.org/2000/svg"
   xmlns:sodipodi="http://sodipodi.sourceforge.net/DTD/sodipodi-0.dtd"
   xmlns:inkscape="http://www.inkscape.org/namespaces/inkscape"
   height="500"
   viewBox="0 0 500 500"
   width="500"
   fill="#000000"
   version="1.1"
   id="svg6"
   sodipodi:docname="icon.svg"
   inkscape:version="1.0.1 (3bc2e813f5, 2020-09-07)"
   inkscape:export-filename="C:\Desenvolvimento\Bibliotecas\vite\to-top-progress\src\assets\icon.png"
   inkscape:export-xdpi="97"
   inkscape:export-ydpi="97">
  <metadata
     id="metadata12">
    <rdf:RDF>
      <cc:Work
         rdf:about="">
        <dc:format>image/svg+xml</dc:format>
        <dc:type
           rdf:resource="http://purl.org/dc/dcmitype/StillImage" />
        <dc:title></dc:title>
      </cc:Work>
    </rdf:RDF>
  </metadata>
  <defs
     id="defs10" />
  <sodipodi:namedview
     pagecolor="#ffffff"
     bordercolor="#666666"
     borderopacity="1"
     objecttolerance="10"
     gridtolerance="10"
     guidetolerance="10"
     inkscape:pageopacity="0"
     inkscape:pageshadow="2"
     inkscape:window-width="1366"
     inkscape:window-height="705"
     id="namedview8"
     showgrid="false"
     inkscape:zoom="0.49534303"
     inkscape:cx="72.748495"
     inkscape:cy="291.09129"
     inkscape:window-x="-8"
     inkscape:window-y="-8"
     inkscape:window-maximized="1"
     inkscape:current-layer="svg6" />
  <path
     d="M 434.63586,44.849042 H 65.364136 c -22.566604,0 -41.030187,18.463583 -41.030187,41.030187 V 332.06039 c 0,22.5666 18.463583,41.03019 41.030187,41.03019 H 208.96981 v 41.0302 h -41.0302 v 41.03018 h 164.12077 v -41.03018 h -41.03019 v -41.0302 h 143.60567 c 22.5666,0 41.03019,-18.46359 41.03019,-41.03019 V 85.879229 c 0,-22.566604 -18.46359,-41.030187 -41.03019,-41.030187 z m 0,287.211348 H 65.364136 V 85.879229 H 434.63586 Z"
     id="path4"
     style="stroke-width:20.5151" />
  <path
     class="tt-progress-arrow"
     shape-rendering="geometricPrecision"
     d="m 249.2028,101.9145 c -0.2837,-0.004 -0.0897,0.0383 0.59886,0.0767 h 0.19476 0.20933 c 4.19121,-0.21699 8.37798,1.18613 11.62155,4.35807 l 93.0469,90.99516 c 6.21145,6.07435 6.3533,15.78163 0.29981,21.99997 -6.05533,6.21974 -15.77081,6.36212 -21.97006,0.29982 l -67.64727,-66.16463 v 148.30885 c 0,8.67925 -6.88101,15.5453 -15.56026,15.5453 -8.67924,0 -15.54522,-6.86605 -15.54522,-15.5453 V 153.47927 l -67.64734,66.16469 c -6.19703,6.06055 -15.93191,5.91801 -21.98503,-0.2998 -6.05157,-6.21613 -5.89883,-15.92356 0.31439,-21.99998 l 93.03187,-90.99515 c 3.10033,-3.03185 7.06342,-4.48828 11.03749,-4.43291 z"
     id="path851"
     style="fill:#000000;stroke-width:7.66779" />
</svg>
